<svg width="29" height="36" viewBox="0 0 29 36" fill="none" xmlns="http://www.w3.org/2000/svg">
<g filter="url(#filter0_d_127_6541)">
<path d="M10.7696 8.08295V2.29493C10.7696 2.13205 10.9016 2 11.0645 2H17.4792C17.6421 2 17.7742 2.13205 17.7742 2.29493V14.682M21.129 11.2166H26.917C27.0799 11.2166 27.212 11.3486 27.212 11.5115V17.9263C27.212 18.0892 27.0799 18.2212 26.917 18.2212H14.5299M7.82025 18.2581H2.03224C1.86935 18.2581 1.7373 18.126 1.7373 17.9631V11.5484C1.7373 11.3855 1.86935 11.2535 2.03224 11.2535H14.4193M10.8064 14.424V33.7051C10.8064 33.868 10.9385 34 11.1014 34H17.8848C18.0477 34 18.1797 33.868 18.1797 33.7051V21.7972" stroke="#2D7575" stroke-width="1.17972" stroke-linecap="round"/>
</g>
<defs>
<filter id="filter0_d_127_6541" x="0.557599" y="0.820294" width="27.834" height="34.3594" filterUnits="userSpaceOnUse" color-interpolation-filters="sRGB">
<feFlood flood-opacity="0" result="BackgroundImageFix"/>
<feColorMatrix in="SourceAlpha" type="matrix" values="0 0 0 0 0 0 0 0 0 0 0 0 0 0 0 0 0 0 127 0" result="hardAlpha"/>
<feOffset/>
<feGaussianBlur stdDeviation="0.294931"/>
<feComposite in2="hardAlpha" operator="out"/>
<feColorMatrix type="matrix" values="0 0 0 0 0.364706 0 0 0 0 0.858824 0 0 0 0 0.294118 0 0 0 1 0"/>
<feBlend mode="normal" in2="BackgroundImageFix" result="effect1_dropShadow_127_6541"/>
<feBlend mode="normal" in="SourceGraphic" in2="effect1_dropShadow_127_6541" result="shape"/>
</filter>
</defs>
</svg>
