<?xml version="1.0" standalone="no"?>
<!DOCTYPE svg PUBLIC "-//W3C//DTD SVG 20010904//EN"
 "http://www.w3.org/TR/2001/REC-SVG-20010904/DTD/svg10.dtd">
<svg version="1.0" xmlns="http://www.w3.org/2000/svg"
 width="1024.000000pt" height="1024.000000pt" viewBox="0 0 1024.000000 1024.000000"
 preserveAspectRatio="xMidYMid meet">

<g transform="translate(0.000000,1024.000000) scale(0.100000,-0.100000)"
fill="#000000" stroke="none">
<path d="M7070 9666 c-27 -10 -575 -248 -1097 -476 -23 -10 -49 -30 -59 -45
-16 -24 -16 -30 -3 -52 8 -14 25 -31 39 -39 14 -8 279 -123 590 -256 434 -185
574 -241 605 -241 38 1 189 64 864 362 101 44 188 81 193 81 4 0 8 -83 8 -185
0 -183 0 -185 24 -200 23 -16 54 -11 68 9 4 6 8 100 8 209 l0 198 35 33 c70
66 44 91 -210 199 -110 46 -371 158 -580 247 -209 89 -396 164 -415 166 -19 2
-51 -3 -70 -10z"/>
<path d="M3420 9465 c-25 -8 -66 -31 -93 -50 -224 -166 -186 -515 70 -632 l53
-24 0 -163 0 -163 -97 -16 c-124 -20 -244 -59 -348 -112 l-81 -42 -55 44 c-82
66 -145 86 -254 81 -73 -4 -100 -9 -143 -32 -203 -104 -260 -373 -117 -560
l26 -35 -31 -67 c-42 -92 -76 -211 -94 -337 -45 -303 21 -619 177 -850 25 -38
41 -66 34 -63 -32 13 -179 56 -232 68 -34 7 -122 12 -205 12 -124 0 -159 -4
-241 -26 -169 -46 -290 -123 -396 -250 -148 -179 -239 -361 -309 -618 -19 -69
-41 -142 -50 -162 -19 -43 -37 -51 -264 -122 -176 -55 -250 -97 -340 -193
-111 -118 -180 -274 -180 -403 l0 -66 -85 -42 c-47 -23 -104 -53 -125 -67
l-40 -25 0 -1454 0 -1453 58 -16 c168 -47 459 -59 702 -31 76 9 240 17 375 19
247 3 280 8 322 47 17 16 28 18 55 13 43 -10 140 -46 135 -51 -2 -2 -41 -11
-88 -20 -194 -36 -338 -77 -466 -131 -131 -55 -135 -57 -158 -102 -16 -31 -39
-56 -69 -75 -77 -47 -84 -86 -24 -143 34 -32 347 -250 673 -467 105 -70 212
-142 240 -161 27 -19 64 -38 83 -41 21 -4 95 7 205 30 94 20 325 68 512 107
187 39 374 79 416 90 69 17 80 17 111 5 65 -27 127 -29 212 -7 94 25 118 39
151 89 24 36 28 38 107 50 213 33 973 176 1023 193 48 16 75 48 75 90 0 31 -6
42 -37 67 -21 16 -57 40 -80 52 -41 21 -43 24 -43 69 0 36 -5 52 -22 69 -13
11 -120 76 -239 144 l-215 123 50 0 c73 1 119 12 161 41 40 27 44 25 75 -27
13 -23 94 -59 131 -59 17 0 44 9 60 20 22 16 33 19 48 10 57 -30 141 2 184 71
l29 48 152 -5 c83 -2 258 -7 388 -10 l238 -6 9 -37 c6 -20 24 -97 40 -172 34
-154 42 -178 72 -218 33 -45 75 -71 132 -81 54 -10 509 -61 927 -105 135 -14
281 -30 325 -35 379 -46 1002 -110 1062 -110 70 0 86 5 242 69 382 158 634
260 638 257 1 -1 42 -285 59 -405 11 -80 86 -126 249 -151 92 -14 256 -7 326
14 66 20 145 62 153 82 3 9 11 71 16 138 23 265 54 505 76 578 3 9 29 28 58
42 122 60 188 187 225 431 35 236 39 853 6 1095 -59 435 -204 707 -483 904
-84 59 -264 156 -289 156 -26 0 -13 15 34 40 76 40 173 143 215 230 52 108 63
164 63 325 0 196 -38 356 -160 670 -121 314 -237 479 -405 580 -36 22 -74 51
-85 65 -98 126 -260 256 -420 335 -250 124 -488 152 -752 90 -210 -50 -348
-123 -498 -263 -45 -42 -118 -104 -161 -138 -190 -144 -323 -383 -435 -778
-58 -204 -79 -341 -79 -511 0 -164 15 -229 75 -330 48 -79 93 -125 171 -170
41 -24 78 -57 106 -92 23 -30 69 -75 102 -101 62 -48 216 -132 241 -132 28 0
15 -15 -42 -49 -78 -47 -197 -163 -265 -258 -99 -138 -215 -384 -265 -563
l-17 -63 -162 6 c-89 4 -214 10 -278 13 l-116 7 -66 127 c-111 216 -200 311
-462 492 -56 39 -105 74 -107 78 -3 5 6 27 19 50 22 39 24 41 31 20 12 -37 75
-100 129 -128 46 -24 61 -27 156 -27 96 0 110 2 163 29 138 70 227 233 227
415 0 231 -146 602 -411 1047 -242 406 -486 626 -789 710 -103 29 -413 27
-534 -4 -172 -43 -352 -152 -459 -276 -214 -249 -535 -805 -647 -1121 -122
-345 -79 -605 124 -745 135 -92 337 -83 430 20 l35 39 16 -26 c9 -13 15 -26
13 -28 -2 -1 -57 -35 -123 -75 -340 -205 -450 -311 -584 -561 -103 -193 -190
-472 -227 -729 -9 -63 -17 -116 -19 -118 -1 -1 -5 21 -9 50 -13 97 -77 431
-117 613 -22 99 -49 227 -60 285 -26 134 -71 306 -103 393 -60 158 -171 353
-257 451 l-42 47 55 57 c157 162 305 419 388 672 36 109 110 418 110 458 0 11
16 40 36 66 80 105 116 228 95 328 -14 68 -58 164 -102 219 -16 20 -29 39 -29
42 0 2 17 -1 38 -9 104 -35 207 -48 382 -48 142 0 194 4 278 22 275 59 487
175 670 366 70 73 171 209 184 248 3 7 189 -100 446 -254 l443 -266 2 -93 c2
-86 5 -99 37 -158 24 -44 52 -78 90 -108 75 -59 135 -78 240 -77 74 0 95 4
150 31 81 38 144 98 178 171 22 48 27 73 29 153 l2 96 258 254 c142 139 297
291 344 337 l86 84 61 -31 c99 -50 102 -49 392 112 264 146 410 248 549 381
177 171 298 377 353 603 27 115 30 315 4 418 -25 103 -88 225 -150 292 l-53
58 -6 116 c-6 122 -17 166 -42 175 -16 6 -108 -32 -632 -262 -155 -68 -294
-124 -308 -124 -15 0 -231 88 -480 195 -249 107 -458 195 -463 195 -5 0 -17
-9 -28 -21 -16 -18 -20 -40 -23 -150 -3 -124 -4 -131 -30 -157 -14 -15 -37
-42 -51 -60 l-25 -33 -655 221 c-360 122 -846 286 -1079 364 l-425 142 -11 51
c-23 100 -107 203 -203 245 -61 27 -189 34 -252 13z m1769 -950 c414 -140 755
-255 757 -257 2 -2 -4 -41 -13 -85 l-17 -82 -131 -62 c-71 -35 -328 -161 -570
-280 l-440 -217 -27 75 c-15 40 -36 89 -48 108 l-21 34 46 62 c58 79 79 149
73 245 -9 133 -85 246 -206 305 -39 20 -63 24 -142 24 -87 0 -101 -3 -160 -32
-36 -17 -80 -48 -99 -67 l-34 -35 -71 39 c-88 48 -257 105 -356 121 -102 16
-101 15 -96 41 3 13 5 88 5 168 l1 146 34 12 c50 18 119 74 160 131 l37 50
282 -96 c155 -52 621 -209 1036 -348z m1501 -41 c185 -52 371 -215 425 -371
18 -52 35 -48 52 12 25 86 133 209 254 289 159 105 395 125 550 45 22 -11 62
-43 89 -71 92 -96 130 -200 130 -353 0 -147 -40 -258 -133 -376 -77 -96 -200
-176 -562 -364 -144 -74 -235 -136 -307 -207 l-60 -58 -26 32 c-86 103 -194
178 -457 315 -334 174 -432 252 -500 395 -42 88 -55 153 -55 267 0 151 41 251
141 346 119 114 281 148 459 99z m-3390 -444 c36 -13 100 -40 142 -61 43 -22
86 -39 96 -39 11 0 63 21 117 46 228 106 366 110 561 14 221 -108 387 -357
434 -653 17 -105 7 -328 -19 -427 -64 -245 -202 -452 -401 -601 -78 -59 -240
-134 -349 -163 -467 -125 -965 20 -1237 358 -75 93 -163 264 -193 375 -126
462 71 971 437 1129 136 58 286 66 412 22z m2635 -227 c61 -276 249 -547 520
-750 77 -59 331 -230 348 -236 7 -2 -313 -324 -525 -526 l-87 -83 -30 21 c-16
12 -56 34 -88 48 -111 52 -256 32 -361 -48 l-49 -36 -449 269 c-247 148 -452
273 -457 277 -4 4 0 27 8 51 38 107 58 243 59 397 l1 152 540 270 c297 148
543 270 546 270 4 1 15 -34 24 -76z m2426 -1356 c200 -53 357 -137 485 -259
46 -45 84 -85 84 -89 0 -5 -15 -9 -32 -9 -46 0 -129 -41 -161 -79 -50 -60 -56
-118 -30 -275 20 -116 24 -532 9 -891 -10 -236 2 -343 50 -456 24 -59 24 -62
8 -87 -58 -91 -176 -225 -374 -427 -124 -126 -252 -259 -284 -295 l-59 -64
-29 34 c-47 56 -106 160 -153 273 -25 59 -45 111 -45 117 0 5 23 10 53 10 59
0 120 24 178 71 112 89 264 401 231 474 -25 55 -60 20 -87 -84 -47 -184 -146
-277 -336 -317 -112 -23 -234 -1 -371 67 -34 17 -59 25 -63 19 -12 -20 7 -51
52 -85 56 -43 41 -54 -43 -29 -142 40 -282 126 -337 206 -70 102 -104 225 -93
331 5 47 21 93 69 192 l62 130 -5 190 c-11 451 -4 554 47 720 92 294 307 510
605 605 106 34 152 39 318 36 127 -3 172 -8 251 -29z m-3443 -584 c-21 -2 -57
-2 -80 0 -24 2 -7 4 37 4 44 0 63 -2 43 -4z m-165 -10 c-13 -2 -33 -2 -45 0
-13 2 -3 4 22 4 25 0 35 -2 23 -4z m270 0 c-7 -2 -19 -2 -25 0 -7 3 -2 5 12 5
14 0 19 -2 13 -5z m-363 -13 c-14 -4 -34 -8 -45 -8 -16 0 -15 2 5 8 14 4 34 8
45 8 16 0 15 -2 -5 -8z m450 0 c20 -6 21 -8 5 -8 -11 0 -31 4 -45 8 -20 6 -21
8 -5 8 11 0 31 -4 45 -8z m-535 -20 c-27 -12 -43 -12 -25 0 8 5 22 9 30 9 10
0 8 -3 -5 -9z m-2209 -119 c179 -120 403 -200 614 -219 l85 -7 -2 -40 c-1 -22
-10 -88 -19 -147 l-18 -108 -21 20 c-70 66 -235 66 -235 0 0 -27 26 -38 71
-30 64 12 159 -47 159 -99 0 -42 -89 -291 -145 -406 -180 -370 -443 -633 -652
-652 -79 -7 -191 18 -263 58 -69 39 -236 206 -319 319 -35 47 -67 87 -72 88
-5 2 -9 -16 -9 -40 1 -93 86 -236 210 -351 l70 -65 -35 -68 c-38 -73 -195
-314 -204 -314 -3 0 -21 42 -40 93 -50 137 -134 316 -209 441 -141 238 -194
389 -196 556 -1 91 2 110 19 134 46 65 53 79 59 118 6 36 9 39 29 33 12 -5 50
-10 84 -12 52 -4 64 -2 82 16 21 21 19 48 -3 63 -6 5 -30 5 -54 2 -126 -18
-210 110 -200 305 4 90 25 139 83 197 55 55 116 71 189 50 83 -24 129 -85 150
-198 10 -57 33 -64 119 -38 177 53 378 203 479 357 l41 61 46 -38 c25 -20 74
-56 107 -79z m2854 99 c8 -5 11 -10 5 -10 -5 0 -17 5 -25 10 -8 5 -10 10 -5
10 6 0 17 -5 25 -10z m-800 -45 c0 -2 -10 -9 -22 -15 -22 -11 -22 -10 -4 4 21
17 26 19 26 11z m-50 -28 c0 -2 -19 -18 -42 -36 l-43 -32 39 35 c37 34 46 40
46 33z m1051 -44 c13 -16 12 -17 -3 -4 -10 7 -18 15 -18 17 0 8 8 3 21 -13z
m79 -68 c19 -19 32 -35 29 -35 -3 0 -20 16 -39 35 -19 19 -32 35 -29 35 3 0
20 -16 39 -35z m-1250 11 c0 -2 -8 -10 -17 -17 -16 -13 -17 -12 -4 4 13 16 21
21 21 13z m-30 -39 c0 -2 -10 -12 -22 -23 l-23 -19 19 23 c18 21 26 27 26 19z
m1331 -34 c13 -16 12 -17 -3 -4 -10 7 -18 15 -18 17 0 8 8 3 21 -13z m39 -54
c15 -28 5 -23 -15 7 -9 15 -12 23 -6 20 6 -4 16 -16 21 -27z m-1440 -9 c-6
-11 -13 -20 -16 -20 -2 0 0 9 6 20 6 11 13 20 16 20 2 0 0 -9 -6 -20z m1468
-45 c-3 -3 -9 2 -12 12 -6 14 -5 15 5 6 7 -7 10 -15 7 -18z m-1507 -32 c-11
-21 -20 -35 -21 -31 0 12 33 78 38 74 2 -2 -6 -21 -17 -43z m1527 -8 c-3 -3
-9 2 -12 12 -6 14 -5 15 5 6 7 -7 10 -15 7 -18z m22 -50 c0 -5 -5 -3 -10 5 -5
8 -10 20 -10 25 0 6 5 3 10 -5 5 -8 10 -19 10 -25z m17 -67 c-3 -8 -6 -5 -6 6
-1 11 2 17 5 13 3 -3 4 -12 1 -19z m10 -40 c-3 -8 -6 -5 -6 6 -1 11 2 17 5 13
3 -3 4 -12 1 -19z m-1640 -20 c-3 -8 -6 -5 -6 6 -1 11 2 17 5 13 3 -3 4 -12 1
-19z m1650 -55 c-3 -10 -5 -2 -5 17 0 19 2 27 5 18 2 -10 2 -26 0 -35z m-1660
-5 c-3 -7 -5 -2 -5 12 0 14 2 19 5 13 2 -7 2 -19 0 -25z m310 -54 c-3 -3 -12
-4 -19 -1 -8 3 -5 6 6 6 11 1 17 -2 13 -5z m103 -4 c11 -7 5 -8 -20 -4 -43 8
-51 14 -19 14 13 0 31 -5 39 -10z m61 -37 l24 -28 -30 25 c-16 14 -32 26 -34
28 -2 1 0 2 6 2 5 0 20 -12 34 -27z m752 20 c-7 -2 -21 -2 -30 0 -10 3 -4 5
12 5 17 0 24 -2 18 -5z m-1236 -40 c-3 -10 -5 -4 -5 12 0 17 2 24 5 18 2 -7 2
-21 0 -30z m196 0 c-21 -21 -40 -37 -43 -35 -5 4 66 72 75 72 4 0 -11 -17 -32
-37z m1202 7 c3 -6 -1 -7 -9 -4 -18 7 -21 14 -7 14 6 0 13 -4 16 -10z m54 -54
c-2 -2 -13 8 -23 22 l-19 27 24 -22 c12 -12 21 -24 18 -27z m-216 -13 c-7 -2
-19 -2 -25 0 -7 3 -2 5 12 5 14 0 19 -2 13 -5z m434 -60 c-2 -16 -4 -5 -4 22
0 28 2 40 4 28 2 -13 2 -35 0 -50z m-1509 32 c-3 -3 -9 2 -12 12 -6 14 -5 15
5 6 7 -7 10 -15 7 -18z m299 19 c-3 -3 -12 -4 -19 -1 -8 3 -5 6 6 6 11 1 17
-2 13 -5z m723 -4 c-8 -5 -19 -10 -25 -10 -5 0 -3 5 5 10 8 5 20 10 25 10 6 0
3 -5 -5 -10z m175 -10 c39 -26 25 -26 -17 0 -18 11 -28 20 -23 20 6 0 24 -9
40 -20z m-224 -8 c-7 -2 -18 1 -23 6 -8 8 -4 9 13 5 13 -4 18 -8 10 -11z
m-1134 -14 c-3 -8 -6 -5 -6 6 -1 11 2 17 5 13 3 -3 4 -12 1 -19z m1420 -4 c-3
-3 -12 -4 -19 -1 -8 3 -5 6 6 6 11 1 17 -2 13 -5z m-1420 -71 c-3 -10 -5 -2
-5 17 0 19 2 27 5 18 2 -10 2 -26 0 -35z m1660 -30 c-3 -10 -5 -4 -5 12 0 17
2 24 5 18 2 -7 2 -21 0 -30z m-10 -60 c-3 -10 -5 -4 -5 12 0 17 2 24 5 18 2
-7 2 -21 0 -30z m-1289 20 c-10 -2 -26 -2 -35 0 -10 3 -2 5 17 5 19 0 27 -2
18 -5z m-78 -6 c0 -2 -15 -16 -32 -33 l-33 -29 29 33 c28 30 36 37 36 29z
m125 -17 c10 -11 16 -20 13 -20 -3 0 -13 9 -23 20 -10 11 -16 20 -13 20 3 0
13 -9 23 -20z m745 17 c0 -2 -10 -12 -22 -23 l-23 -19 19 23 c18 21 26 27 26
19z m487 -79 c-3 -8 -6 -5 -6 6 -1 11 2 17 5 13 3 -3 4 -12 1 -19z m-1630 -70
c-2 -18 -4 -6 -4 27 0 33 2 48 4 33 2 -15 2 -42 0 -60z m430 60 c-3 -8 -6 -5
-6 6 -1 11 2 17 5 13 3 -3 4 -12 1 -19z m900 -50 c-2 -13 -4 -5 -4 17 -1 22 1
32 4 23 2 -10 2 -28 0 -40z m-1130 -20 c-2 -13 -4 -3 -4 22 0 25 2 35 4 23 2
-13 2 -33 0 -45z m1420 -20 c-2 -13 -4 -3 -4 22 0 25 2 35 4 23 2 -13 2 -33 0
-45z m-1393 -44 c3 -8 2 -12 -4 -9 -6 3 -10 10 -10 16 0 14 7 11 14 -7z m1383
-276 c-1 -46 -3 -9 -3 82 0 91 2 128 3 83 2 -46 2 -120 0 -165z m-1311 214
c-10 -2 -22 0 -28 6 -6 6 0 7 19 4 21 -5 23 -7 9 -10z m869 0 c-3 -3 -11 0
-18 7 -9 10 -8 11 6 5 10 -3 15 -9 12 -12z m85 8 c-8 -5 -19 -10 -25 -10 -5 0
-3 5 5 10 8 5 20 10 25 10 6 0 3 -5 -5 -10z m-1243 -82 c-2 -18 -4 -6 -4 27 0
33 2 48 4 33 2 -15 2 -42 0 -60z m0 -120 c-2 -18 -4 -6 -4 27 0 33 2 48 4 33
2 -15 2 -42 0 -60z m613 2 c-8 -5 -22 -9 -30 -9 -10 0 -8 3 5 9 27 12 43 12
25 0z m53 3 c-7 -2 -19 -2 -25 0 -7 3 -2 5 12 5 14 0 19 -2 13 -5z m130 0 c-7
-2 -21 -2 -30 0 -10 3 -4 5 12 5 17 0 24 -2 18 -5z m72 -23 c3 -6 -1 -7 -9 -4
-18 7 -21 14 -7 14 6 0 13 -4 16 -10z m-330 -8 c-53 -42 -60 -46 -33 -19 16
15 31 27 35 27 4 0 3 -3 -2 -8z m375 -27 c13 -14 21 -25 18 -25 -2 0 -15 11
-28 25 -13 14 -21 25 -18 25 2 0 15 -11 28 -25z m3916 -39 c25 -19 65 -42 90
-52 24 -9 44 -20 44 -24 0 -15 -73 -217 -129 -360 -64 -160 -143 -325 -176
-365 l-21 -27 -31 49 c-92 142 -302 261 -291 165 2 -20 14 -33 48 -51 25 -13
91 -71 147 -129 138 -142 153 -141 242 17 67 120 221 481 275 649 l18 52 72 0
c55 0 95 -8 172 -34 455 -153 675 -453 746 -1016 21 -166 17 -861 -5 -1010
-21 -133 -49 -245 -76 -299 -17 -32 -92 -111 -106 -111 -2 0 0 12 6 27 13 35
3 145 -16 184 -8 15 -29 36 -46 46 -19 11 -38 36 -51 66 -44 101 -94 117 -361
117 -180 0 -285 -10 -360 -32 -38 -11 -60 -42 -81 -109 -2 -9 -24 -27 -48 -41
l-44 -24 -51 51 c-28 28 -77 65 -109 82 l-57 31 49 25 c62 31 293 117 404 151
173 52 296 57 465 20 127 -27 135 -28 135 -11 0 64 -261 133 -415 110 l-60 -9
2 70 c9 216 24 534 34 699 11 186 8 220 -19 203 -16 -10 -40 -138 -52 -276
-16 -196 -30 -472 -30 -595 l0 -113 -192 -65 c-186 -63 -336 -126 -405 -169
-30 -18 -52 -20 -231 -22 -162 -2 -206 -5 -245 -20 -26 -10 -50 -16 -53 -14
-5 5 -84 495 -113 706 -11 78 -25 150 -30 160 -16 28 -74 80 -104 91 -15 6
-118 15 -230 21 -111 5 -223 12 -249 16 l-48 6 -1 81 c-2 96 -9 139 -26 144
-16 6 -31 -54 -39 -150 l-7 -78 -141 6 c-186 8 -208 12 -202 33 3 9 12 43 21
74 37 130 130 333 210 458 52 81 159 198 230 250 46 34 156 100 166 100 2 0 4
-105 5 -233 0 -203 2 -239 20 -287 18 -51 21 -55 54 -58 32 -3 44 5 112 65 41
37 91 80 109 95 29 22 32 29 23 45 -28 47 -94 23 -173 -64 l-59 -63 -6 32
c-11 60 -19 333 -12 411 l8 77 53 0 c90 0 96 -5 144 -127 50 -125 102 -225
176 -338 l53 -80 -10 -98 c-10 -104 -4 -127 32 -127 28 0 37 20 45 100 4 41
11 86 16 99 12 31 130 161 372 409 187 193 306 329 344 393 10 16 19 29 21 29
2 0 23 -15 48 -34z m-3878 -21 c-3 -3 -9 2 -12 12 -6 14 -5 15 5 6 7 -7 10
-15 7 -18z m-941 -52 c-3 -10 -5 -4 -5 12 0 17 2 24 5 18 2 -7 2 -21 0 -30z
m10 -55 c-3 -7 -5 -2 -5 12 0 14 2 19 5 13 2 -7 2 -19 0 -25z m1570 0 c-3 -7
-5 -2 -5 12 0 14 2 19 5 13 2 -7 2 -19 0 -25z m-1113 -4 c3 -8 2 -12 -4 -9 -6
3 -10 10 -10 16 0 14 7 11 14 -7z m1103 -36 c-3 -8 -6 -5 -6 6 -1 11 2 17 5
13 3 -3 4 -12 1 -19z m-1550 -10 c-3 -8 -6 -5 -6 6 -1 11 2 17 5 13 3 -3 4
-12 1 -19z m489 -10 l29 -33 -32 29 c-31 28 -38 36 -30 36 2 0 16 -15 33 -32z
m394 29 c0 -2 -10 -12 -22 -23 l-23 -19 19 23 c18 21 26 27 26 19z m651 -64
c-12 -20 -14 -14 -5 12 4 9 9 14 11 11 3 -2 0 -13 -6 -23z m-934 -29 c-3 -3
-12 -4 -19 -1 -8 3 -5 6 6 6 11 1 17 -2 13 -5z m493 3 c0 -2 -17 -19 -37 -38
l-38 -34 34 38 c33 34 41 42 41 34z m-755 -49 l40 -43 -45 40 c-25 22 -47 41
-49 43 -2 1 0 2 5 2 6 0 28 -19 49 -42z m282 10 c-3 -7 -5 -2 -5 12 0 14 2 19
5 13 2 -7 2 -19 0 -25z m103 28 c0 -3 -4 -8 -10 -11 -5 -3 -10 -1 -10 4 0 6 5
11 10 11 6 0 10 -2 10 -4z m781 -39 c-10 -9 -11 -8 -5 6 3 10 9 15 12 12 3 -3
0 -11 -7 -18z m-1244 -24 c-3 -10 -5 -4 -5 12 0 17 2 24 5 18 2 -7 2 -21 0
-30z m344 -6 c-10 -9 -11 -8 -5 6 3 10 9 15 12 12 3 -3 0 -11 -7 -18z m139 -2
c14 -19 14 -19 -2 -6 -10 7 -18 18 -18 24 0 6 1 8 3 6 1 -2 9 -13 17 -24z
m235 -15 c-3 -5 -12 -10 -18 -10 -7 0 -6 4 3 10 19 12 23 12 15 0z m165 6 c0
-2 -8 -10 -17 -17 -16 -13 -17 -12 -4 4 13 16 21 21 21 13z m-859 -23 c13 -16
12 -17 -3 -4 -17 13 -22 21 -14 21 2 0 10 -8 17 -17z m289 2 c-7 -8 -17 -15
-23 -15 -6 0 -2 7 9 15 25 19 30 19 14 0z m-407 -110 l58 -70 -58 62 c-32 34
-66 77 -76 95 -17 32 -17 32 0 8 10 -14 44 -56 76 -95z m1297 95 c-6 -11 -13
-20 -16 -20 -2 0 0 9 6 20 6 11 13 20 16 20 2 0 0 -9 -6 -20z m-633 4 c-3 -3
-12 -4 -19 -1 -8 3 -5 6 6 6 11 1 17 -2 13 -5z m76 -1 c-7 -2 -19 -2 -25 0 -7
3 -2 5 12 5 14 0 19 -2 13 -5z m-416 -9 c-3 -3 -12 -4 -19 -1 -8 3 -5 6 6 6
11 1 17 -2 13 -5z m40 0 c-3 -3 -12 -4 -19 -1 -8 3 -5 6 6 6 11 1 17 -2 13 -5z
m208 -57 c17 -9 26 -16 22 -17 -14 0 -63 28 -77 45 -12 14 -16 13 -44 -12
l-31 -28 29 32 c29 33 30 33 50 14 12 -10 35 -26 51 -34z m340 43 c-3 -5 -16
-15 -28 -21 -19 -9 -19 -8 3 10 28 23 34 26 25 11z m345 -43 c0 -2 -15 -16
-32 -33 l-33 -29 29 33 c28 30 36 37 36 29z m-825 -17 c-3 -5 -12 -10 -18 -10
-7 0 -6 4 3 10 19 12 23 12 15 0z m202 -6 c-3 -3 -12 -4 -19 -1 -8 3 -5 6 6 6
11 1 17 -2 13 -5z m-240 -10 c-3 -3 -12 -4 -19 -1 -8 3 -5 6 6 6 11 1 17 -2
13 -5z m331 -1 c-16 -2 -40 -2 -55 0 -16 2 -3 4 27 4 30 0 43 -2 28 -4z m452
-48 c-7 -9 -27 -25 -44 -37 -23 -15 -21 -11 9 16 43 38 55 45 35 21z m40 -172
c-58 -144 -186 -439 -197 -452 -2 -3 -37 13 -79 35 -48 25 -77 35 -82 28 -33
-49 -195 -254 -201 -254 -4 0 -58 60 -120 133 l-114 134 -96 -42 -96 -43 -39
72 c-55 100 -110 219 -172 374 -30 74 -54 136 -54 138 0 3 30 -18 66 -46 76
-58 169 -107 264 -139 62 -21 67 -25 112 -94 57 -89 195 -247 231 -266 26 -14
29 -13 63 20 48 46 181 222 224 296 32 55 42 64 117 102 78 40 194 120 222
154 7 10 15 17 16 17 1 0 -28 -75 -65 -167z m-1125 137 c10 -11 16 -20 13 -20
-3 0 -13 9 -23 20 -10 11 -16 20 -13 20 3 0 13 -9 23 -20z m95 -66 c0 -2 -9 0
-20 6 -11 6 -20 13 -20 16 0 2 9 0 20 -6 11 -6 20 -13 20 -16z m55 -32 c-3 -3
-11 0 -18 7 -9 10 -8 11 6 5 10 -3 15 -9 12 -12z m735 4 c0 -2 -7 -7 -16 -10
-8 -3 -12 -2 -9 4 6 10 25 14 25 6z m-583 -52 c-3 -3 -12 -4 -19 -1 -8 3 -5 6
6 6 11 1 17 -2 13 -5z m56 -11 c-7 -2 -19 -2 -25 0 -7 3 -2 5 12 5 14 0 19 -2
13 -5z m105 -10 c-16 -2 -40 -2 -55 0 -16 2 -3 4 27 4 30 0 43 -2 28 -4z m175
0 c-13 -2 -33 -2 -45 0 -13 2 -3 4 22 4 25 0 35 -2 23 -4z m108 -86 c-10 -9
-11 -8 -5 6 3 10 9 15 12 12 3 -3 0 -11 -7 -18z m-34 7 c-3 -3 -12 -4 -19 -1
-8 3 -5 6 6 6 11 1 17 -2 13 -5z m-294 -11 c-7 -2 -21 -2 -30 0 -10 3 -4 5 12
5 17 0 24 -2 18 -5z m65 0 c-10 -2 -26 -2 -35 0 -10 3 -2 5 17 5 19 0 27 -2
18 -5z m222 -53 c-12 -16 -24 -30 -26 -30 -3 0 4 14 16 30 12 17 24 30 26 30
3 0 -4 -13 -16 -30z m-265 -20 c10 -11 16 -20 13 -20 -3 0 -13 9 -23 20 -10
11 -16 20 -13 20 3 0 13 -9 23 -20z m50 -60 c10 -11 16 -20 13 -20 -3 0 -13 9
-23 20 -10 11 -16 20 -13 20 3 0 13 -9 23 -20z m92 -77 c-14 -14 -19 -15 -29
-4 -11 10 -10 11 3 6 10 -4 20 -2 24 4 3 6 9 11 13 11 3 0 -1 -8 -11 -17z
m988 -168 c149 -8 369 -19 490 -25 121 -5 369 -17 550 -26 182 -8 444 -18 583
-22 l252 -7 30 -31 c30 -29 31 -36 86 -374 30 -190 92 -563 137 -830 44 -267
83 -513 85 -548 4 -72 -12 -102 -57 -102 -15 0 -330 34 -701 75 -601 66 -1163
126 -1485 156 -121 12 -150 24 -170 72 -13 32 -82 348 -190 872 -31 149 -71
347 -91 440 -53 257 -53 255 -43 288 5 16 18 41 31 54 20 21 29 23 122 23 56
0 223 -7 371 -15z m-3691 -540 c26 -82 49 -159 52 -169 5 -16 3 -18 -12 -11
-11 4 -67 24 -126 44 l-106 36 71 127 c39 70 72 127 73 125 1 -1 23 -69 48
-152z m2094 -92 c-10 -2 -28 -2 -40 0 -13 2 -5 4 17 4 22 1 32 -1 23 -4z m110
0 c-10 -2 -28 -2 -40 0 -13 2 -5 4 17 4 22 1 32 -1 23 -4z m55 -10 c-7 -2 -19
-2 -25 0 -7 3 -2 5 12 5 14 0 19 -2 13 -5z m113 -54 c3 -6 -5 -3 -20 6 -14 10
-26 19 -26 22 0 7 39 -17 46 -28z m-2647 -9 c197 -25 361 -106 497 -246 93
-94 222 -256 254 -316 24 -46 24 -47 6 -67 -11 -12 -29 -21 -40 -21 -37 0
-151 86 -227 172 -173 195 -269 278 -305 264 -24 -9 -16 -24 59 -105 117 -127
179 -274 147 -351 -24 -58 -86 -44 -117 28 -52 121 -96 202 -128 235 -46 47
-81 71 -95 62 -20 -13 -9 -43 38 -101 93 -116 136 -262 94 -314 -17 -21 -24
-23 -48 -15 -22 8 -42 33 -79 98 -63 109 -91 144 -143 181 -35 24 -44 26 -57
16 -24 -20 -18 -34 50 -115 73 -85 95 -122 95 -159 0 -21 -22 -56 -36 -56 -16
0 -57 30 -116 86 -78 73 -123 101 -233 144 -104 41 -138 68 -171 135 -24 49
-26 64 -22 128 6 83 46 204 84 254 51 67 70 73 249 73 88 0 198 -5 244 -10z
m2686 -20 c10 -11 16 -20 13 -20 -3 0 -13 9 -23 20 -10 11 -16 20 -13 20 3 0
13 -9 23 -20z m-616 -3 c-2 -2 -29 -25 -59 -52 l-55 -48 52 51 c28 29 55 52
59 52 4 0 5 -1 3 -3z m686 -67 c21 -22 37 -40 34 -40 -3 0 -23 18 -44 40 -21
22 -37 40 -34 40 3 0 23 -18 44 -40z m-157 22 c8 -5 -1 -8 -22 -8 -19 1 -32 4
-29 9 6 9 35 9 51 -1z m-27 -79 c13 -16 12 -17 -3 -4 -17 13 -22 21 -14 21 2
0 10 -8 17 -17z m-638 -28 c-3 -9 -8 -14 -10 -11 -3 3 -2 9 2 15 9 16 15 13 8
-4z m807 -26 c15 -28 5 -23 -15 7 -9 15 -12 23 -6 20 6 -4 16 -16 21 -27z
m-322 13 c8 -5 -1 -8 -22 -8 -19 1 -32 4 -29 9 6 9 35 9 51 -1z m213 -19 c13
-16 12 -17 -3 -4 -17 13 -22 21 -14 21 2 0 10 -8 17 -17z m-170 -10 c13 -16
12 -17 -3 -4 -17 13 -22 21 -14 21 2 0 10 -8 17 -17z m199 -33 c6 -11 8 -20 6
-20 -3 0 -10 9 -16 20 -6 11 -8 20 -6 20 3 0 10 -9 16 -20z m5067 -51 c23 -9
71 -94 59 -106 -16 -16 -234 -34 -366 -30 -120 4 -285 22 -298 33 -2 1 0 23 3
48 7 44 8 45 49 51 157 24 495 26 553 4z m-5286 -16 c13 -16 12 -17 -3 -4 -17
13 -22 21 -14 21 2 0 10 -8 17 -17z m109 -3 c6 -11 8 -20 6 -20 -3 0 -10 9
-16 20 -6 11 -8 20 -6 20 3 0 10 -9 16 -20z m327 -2 c-3 -8 -6 -5 -6 6 -1 11
2 17 5 13 3 -3 4 -12 1 -19z m3496 5 c-18 -2 -48 -2 -65 0 -18 2 -4 4 32 4 36
0 50 -2 33 -4z m170 0 c-13 -2 -33 -2 -45 0 -13 2 -3 4 22 4 25 0 35 -2 23 -4z
m-4656 -65 c-2 -13 -4 -3 -4 22 0 25 2 35 4 23 2 -13 2 -33 0 -45z m4376 55
c-7 -2 -19 -2 -25 0 -7 3 -2 5 12 5 14 0 19 -2 13 -5z m-3962 -20 c13 -16 12
-17 -3 -4 -17 13 -22 21 -14 21 2 0 10 -8 17 -17z m3889 2 c-46 -18 -64 -17
-25 0 17 8 37 14 45 14 8 0 -1 -7 -20 -14z m-3720 -15 c6 -11 8 -20 6 -20 -3
0 -10 9 -16 20 -6 11 -8 20 -6 20 3 0 10 -9 16 -20z m337 -22 c-3 -7 -5 -2 -5
12 0 14 2 19 5 13 2 -7 2 -19 0 -25z m-591 -10 l29 -33 -32 29 c-31 28 -38 36
-30 36 2 0 16 -15 33 -32z m671 0 c-3 -7 -5 -2 -5 12 0 14 2 19 5 13 2 -7 2
-19 0 -25z m3958 -39 c39 -43 39 -43 -15 6 -30 27 -57 51 -60 53 -3 3 4 0 15
-6 11 -6 38 -30 60 -53z m-698 29 c-3 -8 -6 -5 -6 6 -1 11 2 17 5 13 3 -3 4
-12 1 -19z m-3560 -20 c-3 -8 -6 -5 -6 6 -1 11 2 17 5 13 3 -3 4 -12 1 -19z
m235 -17 c2 -22 0 -37 -4 -35 -8 5 -11 74 -4 74 2 0 6 -18 8 -39z m-908 -42
c4 -8 0 -5 -8 5 -9 11 -16 31 -15 45 1 24 2 24 8 -5 4 -17 11 -37 15 -45z
m436 36 c0 -5 -5 -3 -10 5 -5 8 -10 20 -10 25 0 6 5 3 10 -5 5 -8 10 -19 10
-25z m520 -10 c-7 -8 -16 -15 -21 -15 -5 0 -1 8 9 18 20 22 31 19 12 -3z
m3287 -22 c-3 -10 -5 -2 -5 17 0 19 2 27 5 18 2 -10 2 -26 0 -35z m-3560 15
c-3 -8 -6 -5 -6 6 -1 11 2 17 5 13 3 -3 4 -12 1 -19z m-90 -10 c-3 -8 -6 -5
-6 6 -1 11 2 17 5 13 3 -3 4 -12 1 -19z m-964 -27 c141 -56 540 -265 737 -386
47 -29 105 -62 128 -74 24 -13 41 -25 38 -28 -3 -3 -54 -1 -113 5 -203 21
-298 24 -430 13 -264 -23 -459 -99 -600 -234 l-62 -59 -203 134 c-272 181
-383 250 -506 316 -57 30 -101 57 -99 61 2 3 10 21 18 39 10 24 23 35 49 42
55 15 79 12 116 -17 25 -19 51 -28 89 -31 49 -4 55 -2 91 31 35 32 39 40 38
84 0 26 -2 54 -5 62 -3 11 20 20 91 38 152 37 205 42 381 38 156 -4 170 -6
242 -34z m827 4 c0 -5 -5 -3 -10 5 -5 8 -10 20 -10 25 0 6 5 3 10 -5 5 -8 10
-19 10 -25z m367 -17 c-2 -13 -4 -5 -4 17 -1 22 1 32 4 23 2 -10 2 -28 0 -40z
m4441 25 c43 -8 154 -17 247 -20 144 -4 188 -2 290 16 66 11 130 23 142 27 19
5 23 0 33 -36 18 -67 8 -87 -53 -105 -139 -42 -374 -56 -575 -35 -147 16 -272
41 -272 54 1 35 23 103 38 114 10 7 28 10 45 6 16 -3 63 -13 105 -21z m-4571
-25 c-3 -7 -5 -2 -5 12 0 14 2 19 5 13 2 -7 2 -19 0 -25z m-608 -45 c2 -2 0
-3 -5 -3 -5 0 -25 14 -44 31 l-35 30 40 -27 c22 -16 42 -29 44 -31z m4204 33
l32 29 -26 -30 c-15 -16 -30 -38 -35 -47 -7 -13 -10 -5 -10 30 -1 26 1 34 3
18 l5 -28 31 28z m-3800 -39 c14 -26 22 -45 16 -42 -10 7 -49 79 -49 91 0 10
3 6 33 -49z m-143 24 c-5 -11 -15 -23 -21 -27 -6 -3 -3 5 6 20 20 30 30 35 15
7z m357 -13 c-3 -8 -6 -5 -6 6 -1 11 2 17 5 13 3 -3 4 -12 1 -19z m3653 -45
c-30 -32 -56 -60 -58 -63 -3 -3 -1 2 4 11 12 23 98 116 103 112 2 -1 -20 -29
-49 -60z m647 25 c-3 -7 -5 -2 -5 12 0 14 2 19 5 13 2 -7 2 -19 0 -25z m-4187
12 c0 -16 -47 -60 -62 -60 -7 1 -1 7 14 15 15 8 29 24 33 35 7 21 15 27 15 10z
m-690 -10 c8 -5 11 -10 5 -10 -5 0 -17 5 -25 10 -8 5 -10 10 -5 10 6 0 17 -5
25 -10z m170 -10 c-8 -5 -24 -9 -35 -9 -16 1 -16 2 5 9 35 11 48 11 30 0z
m-97 -7 c-7 -2 -19 -2 -25 0 -7 3 -2 5 12 5 14 0 19 -2 13 -5z m401 -44 c-9
-10 -22 -19 -28 -19 -6 0 0 7 12 16 12 8 23 25 23 37 1 18 2 19 6 4 3 -10 -3
-27 -13 -38z m130 11 c-6 -5 -24 21 -24 34 0 6 6 1 14 -10 8 -10 12 -21 10
-24z m3816 17 c0 -2 -12 -14 -27 -28 l-28 -24 24 28 c23 25 31 32 31 24z m75
-49 c-10 -13 -14 -16 -11 -8 3 8 9 24 13 35 4 11 8 14 11 7 2 -6 -4 -22 -13
-34z m426 -5 c13 -16 12 -17 -3 -4 -10 7 -18 15 -18 17 0 8 8 3 21 -13z m-577
-35 c-16 -18 -32 -37 -36 -42 -5 -6 -8 -7 -8 -3 0 8 60 77 68 77 3 0 -7 -15
-24 -32z m126 9 c0 -2 -12 -14 -27 -28 l-28 -24 24 28 c23 25 31 32 31 24z
m587 -64 c-3 -10 -5 -2 -5 17 0 19 2 27 5 18 2 -10 2 -26 0 -35z m60 41 c-3
-3 -12 -4 -19 -1 -8 3 -5 6 6 6 11 1 17 -2 13 -5z m650 0 c-3 -3 -12 -4 -19
-1 -8 3 -5 6 6 6 11 1 17 -2 13 -5z m-810 -51 c-3 -10 -5 -2 -5 17 0 19 2 27
5 18 2 -10 2 -26 0 -35z m276 40 c-13 -2 -35 -2 -50 0 -16 2 -5 4 22 4 28 0
40 -2 28 -4z m480 0 c-7 -2 -19 -2 -25 0 -7 3 -2 5 12 5 14 0 19 -2 13 -5z
m-275 -10 c-16 -2 -40 -2 -55 0 -16 2 -3 4 27 4 30 0 43 -2 28 -4z m165 0
c-23 -2 -64 -2 -90 0 -26 2 -7 3 42 3 50 0 71 -1 48 -3z m-1436 -50 c-3 -10
-5 -4 -5 12 0 17 2 24 5 18 2 -7 2 -21 0 -30z m1620 15 c-3 -8 -6 -5 -6 6 -1
11 2 17 5 13 3 -3 4 -12 1 -19z m-1504 -23 c-9 -19 -18 -33 -21 -31 -4 5 26
66 33 66 3 0 -3 -16 -12 -35z m-6471 -35 c44 -33 90 -63 103 -66 28 -7 80 19
95 46 10 19 13 19 33 5 47 -33 144 -5 168 49 10 21 15 23 38 15 48 -19 202
-99 314 -166 95 -56 468 -294 489 -312 4 -3 -47 -4 -113 -3 -254 7 -480 -55
-836 -229 -169 -83 -199 -107 -169 -137 17 -18 5 -23 295 112 168 78 323 133
458 162 116 25 314 23 426 -5 49 -11 97 -21 106 -21 10 0 39 27 64 59 61 79
134 136 232 181 185 86 429 107 785 69 52 -5 105 -12 118 -15 27 -5 30 -39 5
-53 -27 -14 -179 -30 -378 -41 -231 -12 -320 -25 -427 -60 -161 -54 -212 -89
-243 -167 -14 -34 -24 -45 -58 -57 -82 -30 -110 -33 -177 -20 -92 18 -141 17
-277 -6 -272 -47 -592 -132 -869 -232 l-112 -40 -73 38 c-144 76 -886 581
-888 605 -1 3 17 14 40 24 42 20 59 40 59 74 0 24 86 71 234 128 75 29 422
120 465 122 8 1 50 -26 93 -59z m7255 -7 c-3 -10 -5 -2 -5 17 0 19 2 27 5 18
2 -10 2 -26 0 -35z m-100 5 c-3 -8 -6 -5 -6 6 -1 11 2 17 5 13 3 -3 4 -12 1
-19z m-790 -20 c-3 -7 -5 -2 -5 12 0 14 2 19 5 13 2 -7 2 -19 0 -25z m1600 10
c-3 -8 -6 -5 -6 6 -1 11 2 17 5 13 3 -3 4 -12 1 -19z m-924 5 c-7 -2 -21 -2
-30 0 -10 3 -4 5 12 5 17 0 24 -2 18 -5z m-602 -26 c-10 -9 -11 -8 -5 6 3 10
9 15 12 12 3 -3 0 -11 -7 -18z m334 -23 c-26 -22 -98 -65 -85 -51 9 9 105 76
110 76 3 0 -8 -11 -25 -25z m492 -31 c-3 -10 -5 -2 -5 17 0 19 2 27 5 18 2
-10 2 -26 0 -35z m-880 7 c4 0 16 8 27 18 21 17 21 17 2 -5 -11 -13 -25 -23
-33 -23 -7 0 -12 10 -12 23 1 16 2 18 6 5 2 -10 7 -18 10 -18z m187 -35 l17
-30 -20 24 c-12 13 -21 28 -21 34 0 12 0 11 24 -28z m546 13 c43 -8 51 -12 35
-18 -11 -5 -180 -75 -377 -157 l-356 -150 -10 51 c-6 28 -8 54 -6 58 2 4 41
21 87 38 45 18 147 59 227 92 80 34 170 71 200 84 58 24 83 24 200 2z m-470
-28 c-8 -5 -22 -9 -30 -9 -10 0 -8 3 5 9 27 12 43 12 25 0z m1297 -22 c-3 -8
-6 -5 -6 6 -1 11 2 17 5 13 3 -3 4 -12 1 -19z m-670 -10 c-3 -8 -6 -5 -6 6 -1
11 2 17 5 13 3 -3 4 -12 1 -19z m660 -60 c-3 -8 -6 -5 -6 6 -1 11 2 17 5 13 3
-3 4 -12 1 -19z m-650 -25 c-3 -10 -5 -4 -5 12 0 17 2 24 5 18 2 -7 2 -21 0
-30z m640 -80 c-3 -10 -5 -2 -5 17 0 19 2 27 5 18 2 -10 2 -26 0 -35z m-630 5
c-3 -8 -6 -5 -6 6 -1 11 2 17 5 13 3 -3 4 -12 1 -19z m-4538 -42 c9 -11 9 -16
0 -22 -8 -4 -9 -3 -5 5 4 7 -2 15 -16 20 -15 7 -17 10 -7 10 9 1 22 -5 28 -13z
m4548 -33 c-3 -10 -5 -2 -5 17 0 19 2 27 5 18 2 -10 2 -26 0 -35z m-4650 21
c-3 -3 -12 -4 -19 -1 -8 3 -5 6 6 6 11 1 17 -2 13 -5z m5260 -16 c-3 -8 -6 -5
-6 6 -1 11 2 17 5 13 3 -3 4 -12 1 -19z m-5310 6 c-3 -3 -12 -4 -19 -1 -8 3
-5 6 6 6 11 1 17 -2 13 -5z m-94 -21 c-7 -2 -19 -2 -25 0 -7 3 -2 5 12 5 14 0
19 -2 13 -5z m184 1 c-3 -3 -12 -4 -19 -1 -8 3 -5 6 6 6 11 1 17 -2 13 -5z
m-244 -11 c-7 -2 -19 -2 -25 0 -7 3 -2 5 12 5 14 0 19 -2 13 -5z m194 1 c-3
-3 -12 -4 -19 -1 -8 3 -5 6 6 6 11 1 17 -2 13 -5z m-300 -20 c-3 -3 -12 -4
-19 -1 -8 3 -5 6 6 6 11 1 17 -2 13 -5z m4970 -31 c-3 -10 -5 -4 -5 12 0 17 2
24 5 18 2 -7 2 -21 0 -30z m-5020 21 c-3 -3 -12 -4 -19 -1 -8 3 -5 6 6 6 11 1
17 -2 13 -5z m190 0 c-3 -3 -12 -4 -19 -1 -8 3 -5 6 6 6 11 1 17 -2 13 -5z
m-50 -10 c-3 -3 -12 -4 -19 -1 -8 3 -5 6 6 6 11 1 17 -2 13 -5z m-234 -11 c-7
-2 -21 -2 -30 0 -10 3 -4 5 12 5 17 0 24 -2 18 -5z m180 0 c-7 -2 -19 -2 -25
0 -7 3 -2 5 12 5 14 0 19 -2 13 -5z m5524 -25 c-3 -7 -5 -2 -5 12 0 14 2 19 5
13 2 -7 2 -19 0 -25z m-5794 15 c-7 -2 -21 -2 -30 0 -10 3 -4 5 12 5 17 0 24
-2 18 -5z m220 0 c-7 -2 -21 -2 -30 0 -10 3 -4 5 12 5 17 0 24 -2 18 -5z
m-310 -10 c-7 -2 -21 -2 -30 0 -10 3 -4 5 12 5 17 0 24 -2 18 -5z m250 0 c-7
-2 -19 -2 -25 0 -7 3 -2 5 12 5 14 0 19 -2 13 -5z m-326 -9 c-3 -3 -12 -4 -19
-1 -8 3 -5 6 6 6 11 1 17 -2 13 -5z m276 -1 c-7 -2 -19 -2 -25 0 -7 3 -2 5 12
5 14 0 19 -2 13 -5z m-340 -10 c-7 -2 -19 -2 -25 0 -7 3 -2 5 12 5 14 0 19 -2
13 -5z m5444 -25 c-3 -7 -5 -2 -5 12 0 14 2 19 5 13 2 -7 2 -19 0 -25z m-5494
15 c-7 -2 -19 -2 -25 0 -7 3 -2 5 12 5 14 0 19 -2 13 -5z m284 1 c-3 -3 -12
-4 -19 -1 -8 3 -5 6 6 6 11 1 17 -2 13 -5z m-60 -10 c-3 -3 -12 -4 -19 -1 -8
3 -5 6 6 6 11 1 17 -2 13 -5z m-310 -10 c-3 -3 -12 -4 -19 -1 -8 3 -5 6 6 6
11 1 17 -2 13 -5z m256 -1 c-7 -2 -19 -2 -25 0 -7 3 -2 5 12 5 14 0 19 -2 13
-5z m-293 -7 c0 -2 -7 -7 -16 -10 -8 -3 -12 -2 -9 4 6 10 25 14 25 6z m237 -2
c-3 -3 -12 -4 -19 -1 -8 3 -5 6 6 6 11 1 17 -2 13 -5z m-64 -11 c-7 -2 -19 -2
-25 0 -7 3 -2 5 12 5 14 0 19 -2 13 -5z m-60 -10 c-7 -2 -19 -2 -25 0 -7 3 -2
5 12 5 14 0 19 -2 13 -5z m5514 -15 c-3 -8 -6 -5 -6 6 -1 11 2 17 5 13 3 -3 4
-12 1 -19z m-5660 -10 c-3 -8 -6 -5 -6 6 -1 11 2 17 5 13 3 -3 4 -12 1 -19z
m100 16 c-3 -3 -12 -4 -19 -1 -8 3 -5 6 6 6 11 1 17 -2 13 -5z m6114 -17 c-10
-9 -11 -8 -5 6 3 10 9 15 12 12 3 -3 0 -11 -7 -18z m-6168 6 c-7 -2 -19 -2
-25 0 -7 3 -2 5 12 5 14 0 19 -2 13 -5z m5676 -50 c2 -2 0 -3 -6 -3 -6 0 -21
9 -34 21 l-24 20 30 -17 c17 -10 32 -19 34 -21z m447 12 c-11 -8 -25 -15 -30
-15 -6 1 0 7 14 15 32 19 40 18 16 0z m-339 -41 c-3 -3 -12 -4 -19 -1 -8 3 -5
6 6 6 11 1 17 -2 13 -5z m206 -1 c-7 -2 -19 -2 -25 0 -7 3 -2 5 12 5 14 0 19
-2 13 -5z m-120 -10 c-7 -2 -21 -2 -30 0 -10 3 -4 5 12 5 17 0 24 -2 18 -5z
m-6403 -37 c0 -8 -61 -12 -66 -4 -3 4 11 8 30 8 20 0 36 -2 36 -4z m-95 -16
c13 -6 15 -9 5 -9 -8 0 -22 4 -30 9 -18 12 -2 12 25 0z m-50 -10 c13 -5 14 -9
5 -9 -8 0 -24 4 -35 9 -13 5 -14 9 -5 9 8 0 24 -4 35 -9z m-180 -40 c13 -6 15
-9 5 -9 -8 0 -22 4 -30 9 -18 12 -2 12 25 0z m-40 -10 c13 -6 15 -9 5 -9 -8 0
-22 4 -30 9 -18 12 -2 12 25 0z m-90 -28 c-3 -3 -11 0 -18 7 -9 10 -8 11 6 5
10 -3 15 -9 12 -12z m-46 -6 c-2 -2 -22 -6 -44 -9 -22 -3 -71 -13 -109 -22
-37 -9 -70 -14 -73 -12 -6 7 158 45 196 46 19 1 32 -1 30 -3z"/>
<path d="M6515 8225 c-49 -19 -91 -58 -117 -109 -31 -61 -23 -161 19 -218 87
-121 257 -121 349 -1 78 102 44 258 -68 315 -50 26 -133 32 -183 13z"/>
<path d="M7622 8227 c-194 -71 -186 -354 12 -412 134 -40 266 63 266 208 0
151 -140 254 -278 204z"/>
<path d="M7075 7884 c-74 -50 -111 -122 -102 -200 9 -83 122 -274 162 -274 14
0 69 64 107 125 80 130 80 232 -1 318 -57 62 -107 71 -166 31z"/>
<path d="M2975 7637 c-33 -12 -81 -37 -105 -54 -78 -53 -175 -165 -216 -247
-33 -68 -37 -86 -42 -174 -5 -116 16 -187 74 -246 122 -125 304 -104 479 56
68 63 130 152 161 233 25 65 25 199 1 270 -49 144 -208 217 -352 162z m173
-257 c52 -32 74 -75 69 -142 -7 -123 -126 -197 -217 -135 -57 38 -74 71 -75
137 0 44 5 65 21 87 53 71 136 93 202 53z"/>
<path d="M3051 7271 c-25 -25 -27 -49 -5 -79 23 -34 83 -27 104 11 13 24 13
30 0 55 -20 36 -70 42 -99 13z"/>
<path d="M3918 7647 c-82 -24 -153 -92 -183 -178 -23 -64 -22 -191 3 -257 33
-85 72 -143 147 -217 127 -124 251 -178 360 -155 147 31 222 147 213 331 -4
79 -8 96 -47 174 -55 111 -165 226 -261 273 -77 38 -162 48 -232 29z m142
-266 c54 -28 80 -74 80 -141 0 -68 -27 -116 -80 -142 -69 -35 -137 -13 -184
59 -38 57 -42 108 -14 163 38 75 123 101 198 61z"/>
<path d="M3926 7268 c-43 -61 18 -123 85 -88 24 13 26 72 3 94 -23 24 -70 20
-88 -6z"/>
<path d="M3457 6976 c-32 -7 -70 -22 -85 -33 -38 -28 -72 -81 -72 -112 0 -56
77 -135 156 -161 l35 -12 -3 -61 c-3 -60 -4 -62 -43 -85 -53 -30 -107 -25
-168 17 -56 38 -83 40 -99 6 -10 -22 -8 -29 11 -49 12 -13 45 -36 74 -52 73
-40 142 -39 218 2 l56 30 34 -22 c58 -38 119 -48 181 -30 102 31 161 92 128
132 -19 22 -45 17 -93 -17 -59 -41 -110 -47 -162 -17 -39 23 -40 25 -43 84
l-3 61 47 18 c127 48 181 162 114 239 -54 61 -171 87 -283 62z"/>
<path d="M7302 5574 c-26 -18 -52 -65 -52 -93 0 -39 26 -51 115 -51 63 0 88 4
99 16 27 27 19 63 -23 105 -32 32 -46 39 -78 39 -21 0 -49 -7 -61 -16z"/>
<path d="M8154 5531 c-52 -23 -77 -57 -63 -83 13 -24 33 -23 87 3 40 20 50 21
94 10 27 -6 70 -25 94 -43 36 -26 46 -29 59 -18 27 22 18 56 -24 89 -76 61
-171 77 -247 42z"/>
<path d="M7305 5275 c-20 -19 -25 -34 -25 -75 0 -116 69 -181 155 -146 41 17
49 42 43 128 -4 53 -9 65 -36 89 -43 38 -102 40 -137 4z"/>
<path d="M8136 5229 c-46 -54 -30 -161 30 -208 39 -31 99 -24 133 15 20 24 23
35 19 92 -4 59 -7 67 -41 98 -50 47 -104 48 -141 3z"/>
<path d="M7459 4860 c-57 -10 -85 -24 -126 -63 -44 -41 -50 -76 -23 -132 25
-52 97 -119 145 -135 25 -8 34 -18 39 -42 11 -54 7 -69 -28 -104 -28 -28 -42
-34 -75 -34 -54 0 -87 18 -139 74 -43 46 -78 59 -88 31 -11 -28 7 -67 52 -111
82 -79 195 -93 288 -34 l44 28 32 -33 c52 -53 126 -79 213 -73 117 8 238 84
223 141 -9 39 -32 39 -78 0 -24 -20 -57 -42 -75 -49 -39 -17 -131 -18 -170 -3
-56 21 -112 93 -127 164 -6 29 -4 31 51 55 102 44 169 132 156 204 -7 35 -73
92 -120 105 -58 16 -143 21 -194 11z"/>
<path d="M1330 5470 c-12 -12 -25 -32 -30 -46 -15 -38 -12 -120 5 -160 12 -30
19 -35 42 -32 28 3 28 4 25 67 -2 42 3 80 14 112 14 39 15 50 5 63 -18 22 -37
20 -61 -4z"/>
<path d="M2197 5410 c-37 -11 -57 -29 -57 -50 0 -34 24 -42 87 -29 73 15 117
7 176 -32 51 -34 81 -32 93 4 9 28 -49 79 -114 101 -49 17 -139 20 -185 6z"/>
<path d="M2210 5132 c-19 -9 -45 -33 -58 -52 -57 -84 16 -203 104 -170 90 35
110 192 29 226 -42 17 -33 17 -75 -4z"/>
<path d="M2768 4984 c-74 -40 -78 -175 -7 -205 56 -23 127 29 136 100 13 93
-54 146 -129 105z"/>
<path d="M2575 4863 c-14 -37 -17 -166 -6 -238 12 -69 11 -78 -5 -96 -23 -25
-66 -24 -134 6 -64 27 -83 20 -59 -23 37 -67 176 -100 236 -56 50 37 55 74 31
236 -21 148 -31 188 -47 188 -5 0 -12 -8 -16 -17z"/>
<path d="M2047 4491 c-16 -62 59 -153 156 -190 94 -35 203 -23 221 25 11 28
-3 34 -81 34 -96 0 -148 23 -219 97 -54 57 -69 64 -77 34z"/>
<path d="M6565 2323 c-46 -24 -66 -45 -86 -88 -43 -93 -12 -216 74 -292 171
-150 406 -7 343 209 -19 68 -79 138 -141 167 -54 25 -146 28 -190 4z"/>
<path d="M798 9233 c23 -2 59 -2 80 0 20 2 1 4 -43 4 -44 0 -61 -2 -37 -4z"/>
<path d="M1061 8595 l0 -645 154 0 155 0 0 645 0 645 -154 0 -154 0 -1 -645z"/>
<path d="M0 185 l0 -185 5120 0 5120 0 0 185 0 185 -5120 0 -5120 0 0 -185z
m2700 159 c0 -2 -7 -4 -15 -4 -8 0 -15 4 -15 10 0 5 7 7 15 4 8 -4 15 -8 15
-10z m6967 -126 c-3 -8 -6 -5 -6 6 -1 11 2 17 5 13 3 -3 4 -12 1 -19z m-2092
-118 c-3 -5 -12 -10 -18 -10 -7 0 -6 4 3 10 19 12 23 12 15 0z m-6622 -7 c-7
-2 -21 -2 -30 0 -10 3 -4 5 12 5 17 0 24 -2 18 -5z m2780 0 c-7 -2 -19 -2 -25
0 -7 3 -2 5 12 5 14 0 19 -2 13 -5z m80 0 c-7 -2 -19 -2 -25 0 -7 3 -2 5 12 5
14 0 19 -2 13 -5z m44 1 c-3 -3 -12 -4 -19 -1 -8 3 -5 6 6 6 11 1 17 -2 13 -5z
m440 0 c-3 -3 -12 -4 -19 -1 -8 3 -5 6 6 6 11 1 17 -2 13 -5z m1360 0 c-3 -3
-12 -4 -19 -1 -8 3 -5 6 6 6 11 1 17 -2 13 -5z m140 0 c-3 -3 -12 -4 -19 -1
-8 3 -5 6 6 6 11 1 17 -2 13 -5z m346 -1 c-7 -2 -21 -2 -30 0 -10 3 -4 5 12 5
17 0 24 -2 18 -5z m1254 1 c-3 -3 -12 -4 -19 -1 -8 3 -5 6 6 6 11 1 17 -2 13
-5z m56 -1 c-7 -2 -21 -2 -30 0 -10 3 -4 5 12 5 17 0 24 -2 18 -5z m1820 0
c-7 -2 -19 -2 -25 0 -7 3 -2 5 12 5 14 0 19 -2 13 -5z m334 1 c-3 -3 -12 -4
-19 -1 -8 3 -5 6 6 6 11 1 17 -2 13 -5z m430 0 c-3 -3 -12 -4 -19 -1 -8 3 -5
6 6 6 11 1 17 -2 13 -5z"/>
</g>
</svg>
